<?xml version="1.0" encoding="UTF-8" standalone="no"?>
<svg
   id="Camada_1"
   data-name="Camada 1"
   viewBox="0 0 256 256"
   version="1.1"
   xmlns="http://www.w3.org/2000/svg"
   xmlns:svg="http://www.w3.org/2000/svg"
   xmlns:rdf="http://www.w3.org/1999/02/22-rdf-syntax-ns#"
   xmlns:cc="http://creativecommons.org/ns#"
   xmlns:dc="http://purl.org/dc/elements/1.1/">
  <metadata
     id="metadata60">
    <rdf:RDF>
      <cc:Work
         rdf:about="">
        <dc:format>image/svg+xml</dc:format>
        <dc:type
           rdf:resource="http://purl.org/dc/dcmitype/StillImage" />
        <dc:title>icon</dc:title>
      </cc:Work>
    </rdf:RDF>
  </metadata>
  <defs
     id="defs7">
    <style
       id="style2">.cls-1{fill:none;}.cls-2{clip-path:url(#clip-path);}.cls-3{opacity:0.2;}.cls-4{fill:#a4ccd6;}.cls-5{fill:#7db6c4;}.cls-6{fill:#fff;}.cls-7{fill:#56a0b0;}.cls-8{fill:#1f2f56;}</style>
    <clipPath
       id="clip-path">
      <rect
         class="cls-1"
         x="-178"
         y="-626"
         width="1544"
         height="500"
         id="rect4" />
    </clipPath>
    <filter
       style="color-interpolation-filters:sRGB"
       id="filter1847"
       x="-0.14163579"
       y="-0.14163579"
       width="1.2832716"
       height="1.2832716">
      <feGaussianBlur
         stdDeviation="10.51991"
         id="feGaussianBlur1849" />
    </filter>
  </defs>
  <title
     id="title9">icon</title>
  <rect
     style="opacity:1;vector-effect:none;fill:#f9f9f9;fill-opacity:1;stroke:none;stroke-width:4.09777117;stroke-linecap:square;stroke-linejoin:miter;stroke-miterlimit:4;stroke-dasharray:none;stroke-dashoffset:0;stroke-opacity:1;paint-order:normal"
     id="rect1003"
     width="256"
     height="256"
     x="0"
     y="0" />
  <style
     id="style2-6"
     type="text/css">
	.st0{fill:#A5CDD7;}
	.st1{fill:#7EB8C5;}
	.st2{fill:#57A2B1;}
	.st3{fill:#1F2F56;}
</style>
  <g
     id="g264"
     transform="translate(283.82412,174.89249)">
    <rect
       fill="none"
       height="24"
       width="24"
       id="rect262"
       x="0"
       y="0" />
  </g>
  <rect
     style="opacity:0.79143288;fill:#000000;fill-opacity:0.72103506;stroke:none;stroke-width:3.331;stroke-miterlimit:3.7;stroke-dasharray:none;stroke-dashoffset:0;stroke-opacity:1;filter:url(#filter1847)"
     id="rect1845"
     width="178.2585"
     height="178.2585"
     x="38.87075"
     y="38.87075"
     rx="5"
     ry="5" />
  <rect
     style="opacity:1;fill:#f7f7f7;fill-opacity:1;stroke:#000000;stroke-width:3.331;stroke-miterlimit:3.7;stroke-dasharray:none;stroke-dashoffset:0;stroke-opacity:1"
     id="rect386"
     width="178.2585"
     height="178.2585"
     x="38.87075"
     y="38.87075"
     rx="5"
     ry="5" />
  <g
     id="g268"
     transform="matrix(5.0366647,0,0,5.0366647,67.560024,67.560024)">
    <path
       d="M 20.5,4 C 17.89,4.7 14.83,5 12,5 9.17,5 6.11,4.7 3.5,4 L 3,6 c 1.86,0.5 4,0.83 6,1 v 12 h 2 v -6 h 2 v 6 h 2 V 7 C 17,6.83 19.14,6.5 21,6 Z M 12,4 c 1.1,0 2,-0.9 2,-2 0,-1.1 -0.9,-2 -2,-2 -1.1,0 -2,0.9 -2,2 0,1.1 0.9,2 2,2 z M 7,24 H 9 V 22 H 7 Z m 4,0 h 2 v -2 h -2 z m 4,0 h 2 v -2 h -2 z"
       id="path266" />
  </g>
  <path
     id="path1731"
     style="color:#000000;fill:#000000;stroke-width:1.10047;stroke-miterlimit:3.7;-inkscape-stroke:none"
     d="m 239.9165,37.228219 c -3.07546,0 -5.85747,2.024014 -5.85747,4.775617 V 214.01518 c 0,2.7516 2.78201,4.77562 5.85747,4.77562 H 256 V 37.228219 Z" />
  <path
     style="color:#000000;fill:#f7f7f7;stroke-width:3.46836;stroke-miterlimit:3.7;-inkscape-stroke:none"
     d="m 240.44916,40.237211 c -1.82819,0 -3.3,1.318753 -3.3,2.956845 V 212.97391 c 0,1.63807 1.47181,2.95683 3.3,2.95683 h 15.54183 V 40.237211 Z"
     id="path1729" />
</svg>
